STARTFONT 2.1
COMMENT This font image translated from Metafont
COMMENT Input file was ``bnsl10''
COMMENT DPI was ``100'', usermag ``1000'', blackness ``3''
COMMENT shrink was 1
FONT -*-bengali-medium-o-*-*-*-100-*-*-*-*-*-fontspecific
SIZE 10 100 100
FONTBOUNDINGBOX 28 19 -8 -5
STARTPROPERTIES 4
FONT_ASCENT 14
FONT_DESCENT 3
COPYRIGHT "GNU General Public License"
_XMBDFED_INFO "Edited with xmbdfed 4.5."
ENDPROPERTIES
CHARS 249
STARTCHAR C001
ENCODING 1
SWIDTH 504 0
DWIDTH 7 0
BBX 8 13 2 -1
BITMAP
80
7C
02
FF
30
6C
04
04
B8
40
20
10
08
ENDCHAR
STARTCHAR C002
ENCODING 2
SWIDTH 576 0
DWIDTH 8 0
BBX 10 12 1 0
BITMAP
4000
3F00
0080
7FC0
2000
7900
6B00
0E00
1200
E400
0400
0400
ENDCHAR
STARTCHAR C003
ENCODING 3
SWIDTH 576 0
DWIDTH 8 0
BBX 10 12 1 0
BITMAP
C000
3F00
0080
7FC0
4800
4800
4B00
4D00
4100
4100
2200
1C00
ENDCHAR
STARTCHAR C004
ENCODING 4
SWIDTH 648 0
DWIDTH 9 0
BBX 10 12 2 0
BITMAP
8000
7F00
0080
FFC0
8800
C800
CB00
CD00
C100
C100
6200
3C00
ENDCHAR
STARTCHAR C005
ENCODING 5
SWIDTH 720 0
DWIDTH 10 0
BBX 9 9 2 0
BITMAP
4A00
D680
7C80
2480
4500
6500
1B00
1B00
0800
ENDCHAR
STARTCHAR C006
ENCODING 6
SWIDTH 648 0
DWIDTH 9 0
BBX 8 9 2 0
BITMAP
07
09
11
9A
9A
82
82
7E
04
ENDCHAR
STARTCHAR C007
ENCODING 7
SWIDTH 792 0
DWIDTH 11 0
BBX 11 13 2 0
BITMAP
0400
0800
0800
07C0
0720
0920
1140
9980
9A00
8200
8200
7E00
0200
ENDCHAR
STARTCHAR C008
ENCODING 8
SWIDTH 576 0
DWIDTH 8 0
BBX 7 9 2 0
BITMAP
1C
A2
A2
9C
9C
84
84
48
30
ENDCHAR
STARTCHAR C014
ENCODING 14
SWIDTH 288 0
DWIDTH 4 0
BBX 6 9 1 0
BITMAP
7C
10
20
20
20
40
40
40
80
ENDCHAR
STARTCHAR C015
ENCODING 15
SWIDTH 0 0
DWIDTH 0 0
BBX 7 3 -8 -1
BITMAP
80
82
7E
ENDCHAR
STARTCHAR C016
ENCODING 16
SWIDTH 576 0
DWIDTH 8 0
BBX 9 10 2 -1
BITMAP
FF80
3200
3200
CC00
3800
2400
4400
3800
1000
0800
ENDCHAR
STARTCHAR C017
ENCODING 17
SWIDTH 648 0
DWIDTH 9 0
BBX 10 9 2 0
BITMAP
FFC0
1900
2900
C600
0200
3A00
C600
C600
0400
ENDCHAR
STARTCHAR C018
ENCODING 18
SWIDTH 1152 0
DWIDTH 16 0
BBX 17 9 2 0
BITMAP
FE7B80
118600
315E00
CE6200
00C400
000400
000400
000400
000800
ENDCHAR
STARTCHAR C019
ENCODING 19
SWIDTH 1152 0
DWIDTH 16 0
BBX 17 9 2 0
BITMAP
FE7B80
118600
315E00
CE6200
00C400
00EC00
011400
018400
000800
ENDCHAR
STARTCHAR C020
ENCODING 20
SWIDTH 1008 0
DWIDTH 14 0
BBX 15 9 2 0
BITMAP
FFFE
1200
3230
CE28
0128
0250
0640
0140
00C0
ENDCHAR
STARTCHAR C021
ENCODING 21
SWIDTH 648 0
DWIDTH 9 0
BBX 10 9 2 0
BITMAP
FFC0
1900
2900
C600
0600
3A00
7200
0A00
0400
ENDCHAR
STARTCHAR C022
ENCODING 22
SWIDTH 792 0
DWIDTH 11 0
BBX 12 9 2 0
BITMAP
FFF0
1140
2940
C640
0280
0E80
0D80
0180
0100
ENDCHAR
STARTCHAR C023
ENCODING 23
SWIDTH 648 0
DWIDTH 9 0
BBX 10 9 2 0
BITMAP
FFC0
1900
2900
C600
0200
6E00
9200
C200
0400
ENDCHAR
STARTCHAR C024
ENCODING 24
SWIDTH 504 0
DWIDTH 7 0
BBX 9 10 1 -1
BITMAP
7F80
1C00
3200
0200
7C00
3000
7800
9C00
C800
0800
ENDCHAR
STARTCHAR C025
ENCODING 25
SWIDTH 720 0
DWIDTH 10 0
BBX 11 9 2 0
BITMAP
FFE0
0400
0F80
2780
8480
4F00
2800
5800
4800
ENDCHAR
STARTCHAR C026
ENCODING 26
SWIDTH 720 0
DWIDTH 10 0
BBX 11 9 2 0
BITMAP
FFE0
0200
0B00
2680
8480
4500
3500
5900
4800
ENDCHAR
STARTCHAR C027
ENCODING 27
SWIDTH 576 0
DWIDTH 8 0
BBX 9 10 2 -1
BITMAP
FF80
3000
4E00
CA00
0200
8400
7800
3000
0800
0400
ENDCHAR
STARTCHAR C028
ENCODING 28
SWIDTH 648 0
DWIDTH 9 0
BBX 10 10 2 -1
BITMAP
FFC0
3000
6F00
0500
0500
BA00
4200
2200
1400
0800
ENDCHAR
STARTCHAR C029
ENCODING 29
SWIDTH 720 0
DWIDTH 10 0
BBX 8 9 2 0
BITMAP
1D
23
BB
89
B6
87
81
42
3C
ENDCHAR
STARTCHAR C030
ENCODING 30
SWIDTH 720 0
DWIDTH 10 0
BBX 8 9 2 0
BITMAP
6D
13
BB
F9
86
87
81
42
3C
ENDCHAR
STARTCHAR C031
ENCODING 31
SWIDTH 648 0
DWIDTH 9 0
BBX 10 9 2 0
BITMAP
FFC0
2000
7E00
0B00
1200
E000
4000
3000
1000
ENDCHAR
STARTCHAR C032
ENCODING 32
SWIDTH 432 0
DWIDTH 6 0
BBX 0 0 0 0
BITMAP
ENDCHAR
STARTCHAR C033
ENCODING 33
SWIDTH 576 0
DWIDTH 8 0
BBX 4 12 5 -2
BITMAP
10
30
30
20
20
60
60
40
40
00
C0
C0
ENDCHAR
STARTCHAR C034
ENCODING 34
SWIDTH 432 0
DWIDTH 6 0
BBX 5 5 3 6
BITMAP
F8
F8
50
90
20
ENDCHAR
STARTCHAR C035
ENCODING 35
SWIDTH 576 0
DWIDTH 8 0
BBX 8 10 1 -2
BITMAP
0A
0A
14
7F
28
FE
28
50
50
A0
ENDCHAR
STARTCHAR C036
ENCODING 36
SWIDTH 648 0
DWIDTH 9 0
BBX 9 12 1 -1
BITMAP
0200
0200
0400
0800
0800
1000
1780
2000
2000
4000
8000
8000
ENDCHAR
STARTCHAR C037
ENCODING 37
SWIDTH 720 0
DWIDTH 10 0
BBX 10 13 1 -1
BITMAP
0800
1C40
1780
2480
2900
2A00
1400
0900
0A80
1480
2480
4500
8200
ENDCHAR
STARTCHAR C038
ENCODING 38
SWIDTH 504 0
DWIDTH 7 0
BBX 8 10 2 -1
BITMAP
37
4C
0C
74
28
18
38
C8
30
10
ENDCHAR
STARTCHAR C039
ENCODING 39
SWIDTH 288 0
DWIDTH 4 0
BBX 3 5 3 6
BITMAP
E0
E0
40
40
80
ENDCHAR
STARTCHAR C040
ENCODING 40
SWIDTH 288 0
DWIDTH 4 0
BBX 5 14 1 -3
BITMAP
08
18
10
30
20
60
60
C0
C0
C0
C0
C0
40
40
ENDCHAR
STARTCHAR C041
ENCODING 41
SWIDTH 288 0
DWIDTH 4 0
BBX 5 14 0 -3
BITMAP
10
10
18
18
18
18
18
38
30
30
60
60
C0
80
ENDCHAR
STARTCHAR C042
ENCODING 42
SWIDTH 504 0
DWIDTH 7 0
BBX 6 7 3 4
BITMAP
10
AC
70
60
B0
40
40
ENDCHAR
STARTCHAR C043
ENCODING 43
SWIDTH 648 0
DWIDTH 9 0
BBX 9 9 1 0
BITMAP
0400
0400
0400
0800
FF80
0800
0800
1000
1000
ENDCHAR
STARTCHAR C044
ENCODING 44
SWIDTH 360 0
DWIDTH 5 0
BBX 3 5 2 -3
BITMAP
C0
E0
40
40
80
ENDCHAR
STARTCHAR C045
ENCODING 45
SWIDTH 360 0
DWIDTH 5 0
BBX 5 2 1 3
BITMAP
F8
F8
ENDCHAR
STARTCHAR C046
ENCODING 46
SWIDTH 504 0
DWIDTH 7 0
BBX 3 9 5 0
BITMAP
20
20
20
40
40
40
40
80
80
ENDCHAR
STARTCHAR C047
ENCODING 47
SWIDTH 288 0
DWIDTH 4 0
BBX 6 11 0 -2
BITMAP
04
04
08
08
10
20
20
40
40
80
80
ENDCHAR
STARTCHAR C048
ENCODING 48
SWIDTH 504 0
DWIDTH 7 0
BBX 8 7 1 1
BITMAP
3E
41
81
81
81
82
7C
ENDCHAR
STARTCHAR C049
ENCODING 49
SWIDTH 504 0
DWIDTH 7 0
BBX 5 8 3 0
BITMAP
80
80
60
10
08
08
F0
E0
ENDCHAR
STARTCHAR C050
ENCODING 50
SWIDTH 504 0
DWIDTH 7 0
BBX 6 9 2 -1
BITMAP
60
18
04
04
F8
40
20
10
08
ENDCHAR
STARTCHAR C051
ENCODING 51
SWIDTH 504 0
DWIDTH 7 0
BBX 7 6 2 1
BITMAP
80
9C
9A
82
44
38
ENDCHAR
STARTCHAR C052
ENCODING 52
SWIDTH 504 0
DWIDTH 7 0
BBX 8 9 1 0
BITMAP
1E
21
41
42
3C
42
82
84
78
ENDCHAR
STARTCHAR C053
ENCODING 53
SWIDTH 504 0
DWIDTH 7 0
BBX 8 8 1 0
BITMAP
1C
27
42
84
88
88
88
7C
ENDCHAR
STARTCHAR C054
ENCODING 54
SWIDTH 504 0
DWIDTH 7 0
BBX 7 8 2 0
BITMAP
30
90
96
9A
82
82
44
38
ENDCHAR
STARTCHAR C055
ENCODING 55
SWIDTH 504 0
DWIDTH 7 0
BBX 6 9 2 0
BITMAP
38
44
84
7C
04
08
08
08
08
ENDCHAR
STARTCHAR C056
ENCODING 56
SWIDTH 504 0
DWIDTH 7 0
BBX 8 9 1 0
BITMAP
40
20
40
41
7E
48
88
90
E0
ENDCHAR
STARTCHAR C057
ENCODING 57
SWIDTH 504 0
DWIDTH 7 0
BBX 7 9 1 0
BITMAP
20
20
20
18
04
02
72
CA
CC
ENDCHAR
STARTCHAR C058
ENCODING 58
SWIDTH 432 0
DWIDTH 6 0
BBX 3 6 3 1
BITMAP
60
60
00
00
C0
C0
ENDCHAR
STARTCHAR C059
ENCODING 59
SWIDTH 360 0
DWIDTH 5 0
BBX 3 8 2 -3
BITMAP
60
60
00
C0
E0
40
40
80
ENDCHAR
STARTCHAR C060
ENCODING 60
SWIDTH 720 0
DWIDTH 10 0
BBX 6 9 5 0
BITMAP
24
24
44
44
48
48
88
88
90
ENDCHAR
STARTCHAR C061
ENCODING 61
SWIDTH 720 0
DWIDTH 10 0
BBX 10 4 1 2
BITMAP
7FC0
0000
0000
FF80
ENDCHAR
STARTCHAR C062
ENCODING 62
SWIDTH 504 0
DWIDTH 7 0
BBX 8 10 2 -1
BITMAP
FF
38
64
04
F8
60
10
78
D0
30
ENDCHAR
STARTCHAR C063
ENCODING 63
SWIDTH 792 0
DWIDTH 11 0
BBX 5 11 7 -1
BITMAP
70
88
C8
10
10
20
40
40
00
C0
C0
ENDCHAR
STARTCHAR C064
ENCODING 64
SWIDTH 648 0
DWIDTH 9 0
BBX 10 10 2 -1
BITMAP
FFC0
0800
E800
D700
1A00
1200
0E00
1200
0C00
0400
ENDCHAR
STARTCHAR C065
ENCODING 65
SWIDTH 288 0
DWIDTH 4 0
BBX 5 9 2 0
BITMAP
B8
40
40
40
40
80
80
80
80
ENDCHAR
STARTCHAR C066
ENCODING 66
SWIDTH 504 0
DWIDTH 7 0
BBX 5 9 2 0
BITMAP
38
48
B0
80
80
60
10
08
08
ENDCHAR
STARTCHAR C067
ENCODING 67
SWIDTH 576 0
DWIDTH 8 0
BBX 9 10 2 -1
BITMAP
FF80
4000
F800
9400
E400
0800
F000
3000
0800
0400
ENDCHAR
STARTCHAR C068
ENCODING 68
SWIDTH 576 0
DWIDTH 8 0
BBX 9 9 2 0
BITMAP
FF80
9000
9000
9600
9A00
8200
8200
4400
3800
ENDCHAR
STARTCHAR C069
ENCODING 69
SWIDTH 288 0
DWIDTH 4 0
BBX 6 13 1 -1
BITMAP
80
70
08
7C
10
20
40
40
80
80
80
B0
60
ENDCHAR
STARTCHAR C070
ENCODING 70
SWIDTH 576 0
DWIDTH 8 0
BBX 9 9 2 0
BITMAP
FF80
C200
3200
3A00
4400
C400
3400
0C00
0800
ENDCHAR
STARTCHAR C071
ENCODING 71
SWIDTH 576 0
DWIDTH 8 0
BBX 9 9 2 0
BITMAP
FF80
8200
8200
7200
2400
E400
1400
0C00
0800
ENDCHAR
STARTCHAR C072
ENCODING 72
SWIDTH 360 0
DWIDTH 5 0
BBX 5 8 1 1
BITMAP
30
48
48
30
00
70
90
E0
ENDCHAR
STARTCHAR C073
ENCODING 73
SWIDTH 216 0
DWIDTH 3 0
BBX 9 13 -3 0
BITMAP
7C00
8200
8200
7A00
0F80
0200
0200
0200
0400
0400
0400
0400
0800
ENDCHAR
STARTCHAR C074
ENCODING 74
SWIDTH 648 0
DWIDTH 9 0
BBX 10 9 2 0
BITMAP
FDC0
0500
1D00
6500
8A00
4A00
2E00
1E00
1000
ENDCHAR
STARTCHAR C075
ENCODING 75
SWIDTH 648 0
DWIDTH 9 0
BBX 10 9 2 0
BITMAP
09C0
F500
C500
0900
7200
7200
0A00
0600
0400
ENDCHAR
STARTCHAR C076
ENCODING 76
SWIDTH 720 0
DWIDTH 10 0
BBX 11 9 2 0
BITMAP
FFE0
4200
FF00
D280
1480
7500
6D00
0D00
0800
ENDCHAR
STARTCHAR C077
ENCODING 77
SWIDTH 432 0
DWIDTH 6 0
BBX 4 9 3 0
BITMAP
60
90
90
60
00
80
40
40
20
ENDCHAR
STARTCHAR C078
ENCODING 78
SWIDTH 504 0
DWIDTH 7 0
BBX 8 9 2 0
BITMAP
37
4C
8C
E4
68
08
08
08
10
ENDCHAR
STARTCHAR C079
ENCODING 79
SWIDTH 216 0
DWIDTH 3 0
BBX 9 12 -3 0
BITMAP
8000
7E00
0100
0780
0200
0200
0200
0400
0400
0400
0400
0800
ENDCHAR
STARTCHAR C080
ENCODING 80
SWIDTH 792 0
DWIDTH 11 0
BBX 10 9 2 0
BITMAP
3200
4D80
4E40
1580
E440
2C40
1B80
1800
0800
ENDCHAR
STARTCHAR C081
ENCODING 81
SWIDTH 864 0
DWIDTH 12 0
BBX 12 9 2 0
BITMAP
0700
0960
1190
9910
9A60
8260
8320
7EC0
0600
ENDCHAR
STARTCHAR C082
ENCODING 82
SWIDTH 576 0
DWIDTH 8 0
BBX 9 11 2 -2
BITMAP
FF80
9000
9000
9600
9A00
8200
8200
4400
3800
6000
6000
ENDCHAR
STARTCHAR C083
ENCODING 83
SWIDTH 576 0
DWIDTH 8 0
BBX 9 9 2 0
BITMAP
8380
5A00
6600
F200
F400
0400
0400
0400
0800
ENDCHAR
STARTCHAR C084
ENCODING 84
SWIDTH 504 0
DWIDTH 7 0
BBX 8 12 2 0
BITMAP
80
7C
02
FF
40
40
48
88
88
90
A0
C0
ENDCHAR
STARTCHAR C085
ENCODING 85
SWIDTH 0 0
DWIDTH 0 0
BBX 5 5 -4 -4
BITMAP
60
80
80
F0
08
ENDCHAR
STARTCHAR C086
ENCODING 86
SWIDTH 504 0
DWIDTH 7 0
BBX 9 11 1 -2
BITMAP
7F80
2000
2000
2400
4400
4400
4800
5000
6000
C000
C000
ENDCHAR
STARTCHAR C087
ENCODING 87
SWIDTH 0 0
DWIDTH 0 0
BBX 3 3 -4 -3
BITMAP
60
C0
20
ENDCHAR
STARTCHAR C088
ENCODING 88
SWIDTH 504 0
DWIDTH 7 0
BBX 8 9 2 0
BITMAP
FF
40
40
48
88
88
90
A0
C0
ENDCHAR
STARTCHAR C089
ENCODING 89
SWIDTH 576 0
DWIDTH 8 0
BBX 9 9 2 0
BITMAP
FF80
C200
2200
3200
4400
C400
3400
0C00
0800
ENDCHAR
STARTCHAR C090
ENCODING 90
SWIDTH 504 0
DWIDTH 7 0
BBX 9 13 1 0
BITMAP
0800
0800
0800
0800
7F80
0400
0400
0C00
1400
2400
C400
8800
7000
ENDCHAR
STARTCHAR C091
ENCODING 91
SWIDTH 216 0
DWIDTH 3 0
BBX 6 15 0 -3
BITMAP
1C
1C
10
30
30
30
30
60
60
60
60
C0
C0
C0
E0
ENDCHAR
STARTCHAR C092
ENCODING 92
SWIDTH 432 0
DWIDTH 6 0
BBX 6 5 2 6
BITMAP
24
48
50
F8
78
ENDCHAR
STARTCHAR C093
ENCODING 93
SWIDTH 216 0
DWIDTH 3 0
BBX 6 15 -1 -3
BITMAP
1C
1C
0C
08
08
18
18
10
10
30
30
20
20
E0
E0
ENDCHAR
STARTCHAR C094
ENCODING 94
SWIDTH 0 0
DWIDTH 0 0
BBX 5 3 1 9
BITMAP
08
20
80
ENDCHAR
STARTCHAR C095
ENCODING 95
SWIDTH 0 0
DWIDTH 0 0
BBX 3 3 -2 -4
BITMAP
80
40
20
ENDCHAR
STARTCHAR C096
ENCODING 96
SWIDTH 288 0
DWIDTH 4 0
BBX 2 5 3 6
BITMAP
40
80
80
C0
C0
ENDCHAR
STARTCHAR C097
ENCODING 97
SWIDTH 792 0
DWIDTH 11 0
BBX 12 9 2 0
BITMAP
FFF0
9040
9C40
9A40
8280
4280
4680
3980
0100
ENDCHAR
STARTCHAR C098
ENCODING 98
SWIDTH 504 0
DWIDTH 7 0
BBX 8 9 2 0
BITMAP
FF
04
14
44
88
C8
28
18
10
ENDCHAR
STARTCHAR C099
ENCODING 99
SWIDTH 504 0
DWIDTH 7 0
BBX 8 9 2 0
BITMAP
FF
40
40
70
88
88
90
A0
C0
ENDCHAR
STARTCHAR C100
ENCODING 100
SWIDTH 504 0
DWIDTH 7 0
BBX 8 9 2 0
BITMAP
FF
40
84
9C
E8
88
10
10
10
ENDCHAR
STARTCHAR C101
ENCODING 101
SWIDTH 288 0
DWIDTH 4 0
BBX 6 10 1 -1
BITMAP
7C
10
20
40
40
80
80
80
B0
60
ENDCHAR
STARTCHAR C102
ENCODING 102
SWIDTH 648 0
DWIDTH 9 0
BBX 10 9 2 0
BITMAP
FFC0
C000
2600
2500
4F00
CE00
2800
1800
1000
ENDCHAR
STARTCHAR C103
ENCODING 103
SWIDTH 576 0
DWIDTH 8 0
BBX 9 9 2 0
BITMAP
0380
7A00
E600
1200
1400
2400
4400
0400
0800
ENDCHAR
STARTCHAR C104
ENCODING 104
SWIDTH 504 0
DWIDTH 7 0
BBX 8 10 2 -1
BITMAP
FF
30
6C
04
04
B8
40
20
10
08
ENDCHAR
STARTCHAR C105
ENCODING 105
SWIDTH 288 0
DWIDTH 4 0
BBX 10 13 2 0
BITMAP
1F00
2080
4040
4040
F800
2000
4000
4000
4000
4000
8000
8000
8000
ENDCHAR
STARTCHAR C106
ENCODING 106
SWIDTH 720 0
DWIDTH 10 0
BBX 11 9 2 0
BITMAP
FFE0
1000
AF80
C100
BE00
8600
8600
7A00
0200
ENDCHAR
STARTCHAR C107
ENCODING 107
SWIDTH 720 0
DWIDTH 10 0
BBX 11 9 2 0
BITMAP
FFE0
0200
0E00
2400
8400
4700
2800
1800
0800
ENDCHAR
STARTCHAR C108
ENCODING 108
SWIDTH 648 0
DWIDTH 9 0
BBX 10 9 2 0
BITMAP
FFC0
0100
7500
8B00
8A00
E200
4200
0200
0400
ENDCHAR
STARTCHAR C109
ENCODING 109
SWIDTH 576 0
DWIDTH 8 0
BBX 9 9 2 0
BITMAP
FF80
8200
8200
4200
2400
6400
7400
0C00
0800
ENDCHAR
STARTCHAR C110
ENCODING 110
SWIDTH 504 0
DWIDTH 7 0
BBX 8 9 2 0
BITMAP
FF
04
04
04
E8
D8
18
08
10
ENDCHAR
STARTCHAR C111
ENCODING 111
SWIDTH 648 0
DWIDTH 9 0
BBX 9 13 2 0
BITMAP
0800
0800
0800
0700
1C80
A280
A300
9E00
9C00
8400
8400
4800
3000
ENDCHAR
STARTCHAR C112
ENCODING 112
SWIDTH 576 0
DWIDTH 8 0
BBX 9 9 2 0
BITMAP
0380
7A00
EE00
3200
6400
0400
0400
0400
0800
ENDCHAR
STARTCHAR C113
ENCODING 113
SWIDTH 648 0
DWIDTH 9 0
BBX 8 10 2 0
BITMAP
07
09
2A
9C
92
96
9A
82
44
38
ENDCHAR
STARTCHAR C114
ENCODING 114
SWIDTH 504 0
DWIDTH 7 0
BBX 8 9 2 0
BITMAP
FF
04
14
44
88
C8
28
18
D0
ENDCHAR
STARTCHAR C115
ENCODING 115
SWIDTH 576 0
DWIDTH 8 0
BBX 9 9 2 0
BITMAP
FF80
C200
2200
3A00
3400
A400
C400
0400
0800
ENDCHAR
STARTCHAR C116
ENCODING 116
SWIDTH 576 0
DWIDTH 8 0
BBX 9 9 2 0
BITMAP
FF80
0000
9C00
9A00
9A00
8200
8200
4400
3800
ENDCHAR
STARTCHAR C117
ENCODING 117
SWIDTH 0 0
DWIDTH 0 0
BBX 6 5 -5 -5
BITMAP
70
90
68
04
04
ENDCHAR
STARTCHAR C118
ENCODING 118
SWIDTH 648 0
DWIDTH 9 0
BBX 10 9 2 0
BITMAP
FFC0
0000
9800
BA00
BD00
8100
8100
4200
3C00
ENDCHAR
STARTCHAR C119
ENCODING 119
SWIDTH 0 0
DWIDTH 0 0
BBX 5 4 -1 9
BITMAP
A0
A8
88
70
ENDCHAR
STARTCHAR C120
ENCODING 120
SWIDTH 504 0
DWIDTH 7 0
BBX 8 9 2 0
BITMAP
27
44
34
24
88
48
28
18
10
ENDCHAR
STARTCHAR C121
ENCODING 121
SWIDTH 576 0
DWIDTH 8 0
BBX 9 9 2 0
BITMAP
FF80
C200
2200
3200
4400
C400
3400
0C00
6800
ENDCHAR
STARTCHAR C122
ENCODING 122
SWIDTH 576 0
DWIDTH 8 0
BBX 8 9 3 0
BITMAP
67
94
94
24
C8
C8
08
08
10
ENDCHAR
STARTCHAR C123
ENCODING 123
SWIDTH 576 0
DWIDTH 8 0
BBX 9 1 1 4
BITMAP
FF80
ENDCHAR
STARTCHAR C124
ENCODING 124
SWIDTH 1080 0
DWIDTH 15 0
BBX 16 1 1 4
BITMAP
FFFF
ENDCHAR
STARTCHAR C125
ENCODING 125
SWIDTH 504 0
DWIDTH 7 0
BBX 9 10 1 -1
BITMAP
7F80
1C00
3200
0200
7C00
3000
0800
7C00
D800
C800
ENDCHAR
STARTCHAR C126
ENCODING 126
SWIDTH 648 0
DWIDTH 9 0
BBX 9 4 1 2
BITMAP
3000
7880
8F00
0600
ENDCHAR
STARTCHAR C127
ENCODING 127
SWIDTH 1008 0
DWIDTH 14 0
BBX 15 11 2 -2
BITMAP
FFEE
0918
0B18
1288
9D90
8110
8110
4210
3C20
3000
3000
ENDCHAR
STARTCHAR C128
ENCODING 128
SWIDTH 720 0
DWIDTH 10 0
BBX 11 9 2 0
BITMAP
FFE0
0700
3C80
4580
5F80
6500
1B00
0A00
0800
ENDCHAR
STARTCHAR C129
ENCODING 129
SWIDTH 576 0
DWIDTH 8 0
BBX 9 13 2 -1
BITMAP
6000
1E00
0100
FF80
0C00
7C00
D400
3400
1000
3C00
4C00
4800
3000
ENDCHAR
STARTCHAR C130
ENCODING 130
SWIDTH 720 0
DWIDTH 10 0
BBX 11 9 2 0
BITMAP
FFE0
1800
A700
E480
9B80
9F00
8400
8800
7000
ENDCHAR
STARTCHAR C131
ENCODING 131
SWIDTH 720 0
DWIDTH 10 0
BBX 11 9 2 0
BITMAP
FFE0
0700
3C80
4480
5D80
6400
1800
0800
0800
ENDCHAR
STARTCHAR C132
ENCODING 132
SWIDTH 648 0
DWIDTH 9 0
BBX 10 9 2 0
BITMAP
FFC0
1900
7500
DD00
3E00
1200
3A00
3600
0400
ENDCHAR
STARTCHAR C133
ENCODING 133
SWIDTH 864 0
DWIDTH 12 0
BBX 14 9 1 0
BITMAP
7FFC
0380
04E0
0890
5D70
8D60
8100
7D00
0200
ENDCHAR
STARTCHAR C134
ENCODING 134
SWIDTH 648 0
DWIDTH 9 0
BBX 11 9 1 0
BITMAP
7FE0
0300
1E80
3380
0B00
0400
6C00
D400
C400
ENDCHAR
STARTCHAR C135
ENCODING 135
SWIDTH 792 0
DWIDTH 11 0
BBX 12 9 2 0
BITMAP
FFF0
4A00
EB00
D680
15C0
7580
6C00
0C00
0800
ENDCHAR
STARTCHAR C136
ENCODING 136
SWIDTH 720 0
DWIDTH 10 0
BBX 11 10 2 -1
BITMAP
FFE0
4A00
FF00
D480
1780
7700
6800
E800
D800
0800
ENDCHAR
STARTCHAR C137
ENCODING 137
SWIDTH 864 0
DWIDTH 12 0
BBX 13 11 2 -2
BITMAP
FFF8
4A20
F7A0
D260
15C0
7DC0
6440
1E40
1980
1880
0080
ENDCHAR
STARTCHAR C138
ENCODING 138
SWIDTH 648 0
DWIDTH 9 0
BBX 10 9 2 0
BITMAP
FFC0
0900
7D00
DD00
3E00
1E00
B200
C200
0400
ENDCHAR
STARTCHAR C139
ENCODING 139
SWIDTH 648 0
DWIDTH 9 0
BBX 10 9 2 0
BITMAP
3BC0
4600
C400
2400
2400
1E00
6A00
1A00
0C00
ENDCHAR
STARTCHAR C140
ENCODING 140
SWIDTH 576 0
DWIDTH 8 0
BBX 9 9 2 0
BITMAP
3B80
4600
C600
2200
2400
2400
DC00
CC00
0800
ENDCHAR
STARTCHAR C141
ENCODING 141
SWIDTH 576 0
DWIDTH 8 0
BBX 9 9 2 0
BITMAP
3B80
4600
C600
2200
2400
1C00
2400
1400
0800
ENDCHAR
STARTCHAR C142
ENCODING 142
SWIDTH 720 0
DWIDTH 10 0
BBX 11 9 2 0
BITMAP
7BE0
8680
C680
2280
2500
0500
0D00
0F00
0200
ENDCHAR
STARTCHAR C143
ENCODING 143
SWIDTH 576 0
DWIDTH 8 0
BBX 10 9 1 0
BITMAP
1DC0
2300
7300
0900
1200
7600
8A00
C200
0400
ENDCHAR
STARTCHAR C144
ENCODING 144
SWIDTH 504 0
DWIDTH 7 0
BBX 8 10 2 -1
BITMAP
FF
44
94
64
C8
28
78
D8
D0
10
ENDCHAR
STARTCHAR C145
ENCODING 145
SWIDTH 576 0
DWIDTH 8 0
BBX 9 9 2 0
BITMAP
FF80
2900
D600
C800
1800
7400
9C00
5C00
3000
ENDCHAR
STARTCHAR C146
ENCODING 146
SWIDTH 1224 0
DWIDTH 17 0
BBX 18 9 2 0
BITMAP
0FFFC0
332800
BFAC00
A75A00
7A5700
45D600
39B000
003000
002000
ENDCHAR
STARTCHAR C147
ENCODING 147
SWIDTH 792 0
DWIDTH 11 0
BBX 12 9 2 0
BITMAP
CC70
7840
A040
BC40
4680
4A80
3480
0280
0100
ENDCHAR
STARTCHAR C148
ENCODING 148
SWIDTH 576 0
DWIDTH 8 0
BBX 10 9 1 0
BITMAP
7FC0
2900
7F00
6F00
0A00
1200
E400
0400
0400
ENDCHAR
STARTCHAR C149
ENCODING 149
SWIDTH 864 0
DWIDTH 12 0
BBX 14 9 2 0
BITMAP
4FFC
3210
BE10
A790
BB20
4720
38A0
0060
0040
ENDCHAR
STARTCHAR C150
ENCODING 150
SWIDTH 648 0
DWIDTH 9 0
BBX 10 9 2 0
BITMAP
4FC0
B900
A100
BD00
4600
4A00
3A00
3600
0400
ENDCHAR
STARTCHAR C151
ENCODING 151
SWIDTH 720 0
DWIDTH 10 0
BBX 11 9 2 0
BITMAP
FFE0
4800
A800
9F00
9900
B100
D200
1400
1800
ENDCHAR
STARTCHAR C152
ENCODING 152
SWIDTH 720 0
DWIDTH 10 0
BBX 11 9 2 0
BITMAP
FFE0
4800
AF00
9480
9880
A100
CE00
0400
0200
ENDCHAR
STARTCHAR C153
ENCODING 153
SWIDTH 720 0
DWIDTH 10 0
BBX 11 11 2 -2
BITMAP
FFE0
4800
BF00
9480
B900
CE00
0400
0200
1E00
0400
0400
ENDCHAR
STARTCHAR C154
ENCODING 154
SWIDTH 648 0
DWIDTH 9 0
BBX 11 9 1 0
BITMAP
7FE0
2000
3800
4800
5F00
6700
BB00
8E00
7800
ENDCHAR
STARTCHAR C155
ENCODING 155
SWIDTH 936 0
DWIDTH 13 0
BBX 14 9 2 0
BITMAP
FFFC
3000
CF00
FB20
8CE0
7BC0
08C0
0740
0040
ENDCHAR
STARTCHAR C156
ENCODING 156
SWIDTH 936 0
DWIDTH 13 0
BBX 14 11 2 -2
BITMAP
FFFC
3000
CF00
FB00
8CE0
7BA0
08C0
0740
01C0
0340
00C0
ENDCHAR
STARTCHAR C157
ENCODING 157
SWIDTH 1224 0
DWIDTH 17 0
BBX 18 9 2 0
BITMAP
FFFDC0
180500
AF1D00
A16900
9F8A00
864A00
462A00
3A1600
021400
ENDCHAR
STARTCHAR C158
ENCODING 158
SWIDTH 720 0
DWIDTH 10 0
BBX 12 8 1 1
BITMAP
7FF0
0C00
15C0
A640
9C80
4680
4700
3800
ENDCHAR
STARTCHAR C159
ENCODING 159
SWIDTH 720 0
DWIDTH 10 0
BBX 12 11 1 -2
BITMAP
7FF0
0800
1800
A780
9C80
4500
4500
3F00
0900
0500
0300
ENDCHAR
STARTCHAR C161
ENCODING 161
SWIDTH 576 0
DWIDTH 8 0
BBX 8 11 1 -2
BITMAP
37
6B
6B
39
4E
94
68
F0
30
08
04
ENDCHAR
STARTCHAR C162
ENCODING 162
SWIDTH 720 0
DWIDTH 10 0
BBX 9 10 2 0
BITMAP
0300
3C80
4980
7980
2880
C700
BE00
8600
7A00
0200
ENDCHAR
STARTCHAR C163
ENCODING 163
SWIDTH 648 0
DWIDTH 9 0
BBX 8 9 2 0
BITMAP
1F
25
AB
8E
78
3C
D4
38
18
ENDCHAR
STARTCHAR C164
ENCODING 164
SWIDTH 576 0
DWIDTH 8 0
BBX 10 13 1 -1
BITMAP
3000
0F00
0080
7FC0
1000
1000
2200
2200
2200
4400
CC00
F400
7800
ENDCHAR
STARTCHAR C165
ENCODING 165
SWIDTH 504 0
DWIDTH 7 0
BBX 8 15 2 -2
BITMAP
80
40
3C
02
FF
40
40
48
88
88
90
E0
70
30
10
ENDCHAR
STARTCHAR C166
ENCODING 166
SWIDTH 864 0
DWIDTH 12 0
BBX 14 9 2 0
BITMAP
FFFC
1080
2880
B520
8DD0
7810
0810
0420
03C0
ENDCHAR
STARTCHAR C167
ENCODING 167
SWIDTH 792 0
DWIDTH 11 0
BBX 12 12 2 0
BITMAP
0C00
03C0
0020
37F0
4C00
CC00
C980
0980
0880
1100
1200
1C00
ENDCHAR
STARTCHAR C168
ENCODING 168
SWIDTH 576 0
DWIDTH 8 0
BBX 6 14 2 0
BITMAP
04
04
08
08
08
38
48
4C
14
14
24
C4
88
70
ENDCHAR
STARTCHAR C169
ENCODING 169
SWIDTH 648 0
DWIDTH 9 0
BBX 8 9 2 0
BITMAP
38
67
E5
82
8C
8E
82
44
38
ENDCHAR
STARTCHAR C170
ENCODING 170
SWIDTH 504 0
DWIDTH 7 0
BBX 9 9 1 0
BITMAP
1B80
2600
6200
2200
3400
4C00
C400
4400
0800
ENDCHAR
STARTCHAR C171
ENCODING 171
SWIDTH 648 0
DWIDTH 9 0
BBX 10 9 2 0
BITMAP
37C0
4D00
C500
4900
0A00
1A00
1E00
0600
0400
ENDCHAR
STARTCHAR C172
ENCODING 172
SWIDTH 576 0
DWIDTH 8 0
BBX 9 9 2 0
BITMAP
FF80
1C00
2200
E200
9C00
9C00
8400
8800
7000
ENDCHAR
STARTCHAR C173
ENCODING 173
SWIDTH 576 0
DWIDTH 8 0
BBX 9 10 2 -1
BITMAP
FF80
1C00
E200
FC00
9C00
8400
4400
3800
6800
1800
ENDCHAR
STARTCHAR C174
ENCODING 174
SWIDTH 648 0
DWIDTH 9 0
BBX 9 9 3 0
BITMAP
4380
BA00
AA00
1200
E400
C400
0400
0400
0800
ENDCHAR
STARTCHAR C175
ENCODING 175
SWIDTH 576 0
DWIDTH 8 0
BBX 9 9 2 0
BITMAP
FF80
9C00
5A00
4200
2400
1C00
F800
C800
0800
ENDCHAR
STARTCHAR C176
ENCODING 176
SWIDTH 576 0
DWIDTH 8 0
BBX 9 9 2 0
BITMAP
FF80
9C00
9A00
4200
2400
1C00
3800
1800
0800
ENDCHAR
STARTCHAR C177
ENCODING 177
SWIDTH 720 0
DWIDTH 10 0
BBX 11 9 2 0
BITMAP
FFE0
9C80
5E80
4280
2500
1900
1D00
1B00
0200
ENDCHAR
STARTCHAR C178
ENCODING 178
SWIDTH 648 0
DWIDTH 9 0
BBX 11 9 1 0
BITMAP
7FE0
0380
0480
0880
5D00
8D00
8100
7D00
0200
ENDCHAR
STARTCHAR C179
ENCODING 179
SWIDTH 792 0
DWIDTH 11 0
BBX 13 9 1 0
BITMAP
7FF8
0700
0960
1160
5920
9BC0
8200
7A00
0600
ENDCHAR
STARTCHAR C180
ENCODING 180
SWIDTH 864 0
DWIDTH 12 0
BBX 13 9 2 0
BITMAP
FFB8
4460
8E60
9920
F340
9040
1040
2040
2080
ENDCHAR
STARTCHAR C181
ENCODING 181
SWIDTH 864 0
DWIDTH 12 0
BBX 13 9 2 0
BITMAP
FFF8
4420
8C20
9B20
F240
9E40
1140
20C0
2080
ENDCHAR
STARTCHAR C182
ENCODING 182
SWIDTH 576 0
DWIDTH 8 0
BBX 9 9 2 0
BITMAP
FF80
8000
B000
E400
2C00
3400
2800
0800
0800
ENDCHAR
STARTCHAR C183
ENCODING 183
SWIDTH 648 0
DWIDTH 9 0
BBX 10 9 2 0
BITMAP
FFC0
4000
8800
B400
CF00
7A00
CA00
2A00
1C00
ENDCHAR
STARTCHAR C184
ENCODING 184
SWIDTH 504 0
DWIDTH 7 0
BBX 8 9 2 0
BITMAP
FF
40
88
B4
C8
78
48
28
10
ENDCHAR
STARTCHAR C185
ENCODING 185
SWIDTH 648 0
DWIDTH 9 0
BBX 10 9 2 0
BITMAP
FFC0
4000
7800
D000
9000
B600
BA00
4400
3800
ENDCHAR
STARTCHAR C186
ENCODING 186
SWIDTH 648 0
DWIDTH 9 0
BBX 10 9 2 0
BITMAP
FFC0
4000
7800
D000
1400
BA00
B200
8200
7C00
ENDCHAR
STARTCHAR C187
ENCODING 187
SWIDTH 576 0
DWIDTH 8 0
BBX 9 9 2 0
BITMAP
FF80
8200
9A00
AA00
D400
1400
7400
6C00
0800
ENDCHAR
STARTCHAR C188
ENCODING 188
SWIDTH 504 0
DWIDTH 7 0
BBX 9 10 1 -1
BITMAP
1B80
2600
1A00
6200
1400
0C00
7400
CC00
C800
0800
ENDCHAR
STARTCHAR C189
ENCODING 189
SWIDTH 936 0
DWIDTH 13 0
BBX 14 9 2 0
BITMAP
33FC
4210
3E70
3590
C620
2520
14A0
0860
0840
ENDCHAR
STARTCHAR C190
ENCODING 190
SWIDTH 792 0
DWIDTH 11 0
BBX 12 12 2 0
BITMAP
0C00
03C0
0020
FFF0
0400
6C00
D980
C980
0880
1100
1200
1C00
ENDCHAR
STARTCHAR C191
ENCODING 191
SWIDTH 648 0
DWIDTH 9 0
BBX 10 9 2 0
BITMAP
FFC0
0800
F800
D200
9D00
8100
8100
4200
3C00
ENDCHAR
STARTCHAR C192
ENCODING 192
SWIDTH 648 0
DWIDTH 9 0
BBX 10 9 2 0
BITMAP
FFC0
0100
7100
E900
8E00
8E00
4E00
4200
3C00
ENDCHAR
STARTCHAR C193
ENCODING 193
SWIDTH 576 0
DWIDTH 8 0
BBX 9 10 2 -1
BITMAP
FF80
0400
E400
D800
3C00
E400
F800
9800
8800
7000
ENDCHAR
STARTCHAR C194
ENCODING 194
SWIDTH 576 0
DWIDTH 8 0
BBX 9 10 2 -1
BITMAP
FF80
0200
7200
EC00
9E00
9A00
4200
3C00
3800
1800
ENDCHAR
STARTCHAR C195
ENCODING 195
SWIDTH 648 0
DWIDTH 9 0
BBX 11 10 1 -1
BITMAP
7FE0
0080
3880
3700
0900
5900
9900
8200
7E00
0200
ENDCHAR
STARTCHAR C196
ENCODING 196
SWIDTH 576 0
DWIDTH 8 0
BBX 9 10 2 -1
BITMAP
FF80
0400
E400
D800
3800
2400
4400
3800
1000
0800
ENDCHAR
STARTCHAR C197
ENCODING 197
SWIDTH 648 0
DWIDTH 9 0
BBX 10 9 2 0
BITMAP
FFC0
0800
6900
D300
D600
1A00
0200
0400
0400
ENDCHAR
STARTCHAR C198
ENCODING 198
SWIDTH 648 0
DWIDTH 9 0
BBX 10 9 2 0
BITMAP
FFC0
0400
F400
CC00
0E00
3A00
6A00
1A00
1C00
ENDCHAR
STARTCHAR C199
ENCODING 199
SWIDTH 504 0
DWIDTH 7 0
BBX 9 9 1 0
BITMAP
7F80
0200
3A00
6600
6400
2400
DC00
CC00
0800
ENDCHAR
STARTCHAR C200
ENCODING 200
SWIDTH 576 0
DWIDTH 8 0
BBX 9 9 2 0
BITMAP
FF80
0200
7A00
C600
C400
1C00
2400
1400
0800
ENDCHAR
STARTCHAR C201
ENCODING 201
SWIDTH 648 0
DWIDTH 9 0
BBX 10 9 2 0
BITMAP
FFC0
0500
F500
C900
0A00
1A00
1E00
1E00
0400
ENDCHAR
STARTCHAR C202
ENCODING 202
SWIDTH 720 0
DWIDTH 10 0
BBX 11 9 2 0
BITMAP
FFE0
3080
0880
E880
DF00
9100
E100
0100
0200
ENDCHAR
STARTCHAR C203
ENCODING 203
SWIDTH 792 0
DWIDTH 11 0
BBX 12 12 2 0
BITMAP
0C00
03C0
0020
07F0
7400
DC00
6D80
0580
0880
0900
0A00
0C00
ENDCHAR
STARTCHAR C204
ENCODING 204
SWIDTH 648 0
DWIDTH 9 0
BBX 10 9 2 0
BITMAP
39C0
C500
2A00
B200
CE00
8E00
8E00
4200
3C00
ENDCHAR
STARTCHAR C205
ENCODING 205
SWIDTH 576 0
DWIDTH 8 0
BBX 9 9 2 0
BITMAP
3B80
C600
2E00
3200
4400
0400
7C00
6C00
0800
ENDCHAR
STARTCHAR C206
ENCODING 206
SWIDTH 576 0
DWIDTH 8 0
BBX 10 9 1 0
BITMAP
1DC0
6300
1F00
1100
2200
7A00
CE00
3600
6400
ENDCHAR
STARTCHAR C207
ENCODING 207
SWIDTH 576 0
DWIDTH 8 0
BBX 9 9 2 0
BITMAP
3B80
C600
2E00
3200
4400
6C00
9400
C400
0800
ENDCHAR
STARTCHAR C208
ENCODING 208
SWIDTH 720 0
DWIDTH 10 0
BBX 11 9 2 0
BITMAP
FFE0
3080
6880
F880
4F00
9100
E100
0100
0200
ENDCHAR
STARTCHAR C209
ENCODING 209
SWIDTH 648 0
DWIDTH 9 0
BBX 11 10 1 -1
BITMAP
7FE0
3300
0A80
1280
3380
0D00
6C00
D400
C400
0800
ENDCHAR
STARTCHAR C210
ENCODING 210
SWIDTH 720 0
DWIDTH 10 0
BBX 12 8 1 1
BITMAP
7FF0
0800
7FC0
9800
9E00
8200
4200
3C00
ENDCHAR
STARTCHAR C211
ENCODING 211
SWIDTH 648 0
DWIDTH 9 0
BBX 10 9 2 0
BITMAP
FFC0
0800
7100
D300
3E00
1200
0200
0400
0400
ENDCHAR
STARTCHAR C212
ENCODING 212
SWIDTH 648 0
DWIDTH 9 0
BBX 10 9 2 0
BITMAP
FFC0
0C00
3400
C600
7E00
CA00
2A00
1A00
1400
ENDCHAR
STARTCHAR C213
ENCODING 213
SWIDTH 504 0
DWIDTH 7 0
BBX 9 9 2 0
BITMAP
FF80
0600
3A00
C200
5C00
E400
2400
1400
0800
ENDCHAR
STARTCHAR C214
ENCODING 214
SWIDTH 504 0
DWIDTH 7 0
BBX 10 9 1 0
BITMAP
7FC0
0100
1F00
3100
0E00
7600
8A00
C200
0400
ENDCHAR
STARTCHAR C215
ENCODING 215
SWIDTH 720 0
DWIDTH 10 0
BBX 11 9 2 0
BITMAP
FFE0
0000
0100
7280
BC80
8100
8100
7F00
0200
ENDCHAR
STARTCHAR C216
ENCODING 216
SWIDTH 576 0
DWIDTH 8 0
BBX 10 10 1 -1
BITMAP
7FC0
5800
5F00
4900
2200
1E00
6A00
D400
C400
0400
ENDCHAR
STARTCHAR C217
ENCODING 217
SWIDTH 576 0
DWIDTH 8 0
BBX 9 9 2 0
BITMAP
FF80
2200
E200
D200
0C00
6400
DC00
CC00
0800
ENDCHAR
STARTCHAR C218
ENCODING 218
SWIDTH 1008 0
DWIDTH 14 0
BBX 15 9 2 0
BITMAP
FDEE
2618
E578
D988
0310
0010
0010
0010
0020
ENDCHAR
STARTCHAR C219
ENCODING 219
SWIDTH 936 0
DWIDTH 13 0
BBX 14 9 2 0
BITMAP
FFFC
4400
E460
DC50
0250
04A0
0C80
0280
0180
ENDCHAR
STARTCHAR C220
ENCODING 220
SWIDTH 576 0
DWIDTH 8 0
BBX 9 9 2 0
BITMAP
FF80
2200
E200
D200
0C00
3C00
6400
1400
0800
ENDCHAR
STARTCHAR C221
ENCODING 221
SWIDTH 648 0
DWIDTH 9 0
BBX 10 9 2 0
BITMAP
FFC0
2100
6100
7200
BC00
BE00
9200
4400
3800
ENDCHAR
STARTCHAR C222
ENCODING 222
SWIDTH 648 0
DWIDTH 9 0
BBX 10 9 2 0
BITMAP
FFC0
2100
7200
6C00
3600
BA00
B200
8200
7C00
ENDCHAR
STARTCHAR C223
ENCODING 223
SWIDTH 720 0
DWIDTH 10 0
BBX 11 9 2 0
BITMAP
FFE0
2280
E280
D280
0D00
0D00
0F00
0300
0200
ENDCHAR
STARTCHAR C224
ENCODING 224
SWIDTH 576 0
DWIDTH 8 0
BBX 10 9 1 0
BITMAP
7FC0
1100
7100
6900
0600
7600
8A00
C200
0400
ENDCHAR
STARTCHAR C225
ENCODING 225
SWIDTH 648 0
DWIDTH 9 0
BBX 10 9 2 0
BITMAP
FFC0
0400
6C00
D400
CC00
7A00
CE00
2E00
1800
ENDCHAR
STARTCHAR C226
ENCODING 226
SWIDTH 576 0
DWIDTH 8 0
BBX 9 9 2 0
BITMAP
FF80
0200
6E00
D600
F400
8C00
CC00
2400
4800
ENDCHAR
STARTCHAR C227
ENCODING 227
SWIDTH 576 0
DWIDTH 8 0
BBX 9 11 2 -2
BITMAP
FF80
6200
9C00
D400
F400
CC00
A400
DC00
9C00
8400
7800
ENDCHAR
STARTCHAR C228
ENCODING 228
SWIDTH 792 0
DWIDTH 11 0
BBX 12 12 2 0
BITMAP
0C00
03C0
0020
FFF0
0400
7C00
DD80
CD80
0880
0900
0A00
0C00
ENDCHAR
STARTCHAR C229
ENCODING 229
SWIDTH 720 0
DWIDTH 10 0
BBX 11 9 2 0
BITMAP
FFE0
6C00
9400
CD00
4E80
4080
4080
2100
1E00
ENDCHAR
STARTCHAR C230
ENCODING 230
SWIDTH 576 0
DWIDTH 8 0
BBX 10 9 1 0
BITMAP
7FC0
3B00
4500
6100
0200
7A00
EE00
3200
4400
ENDCHAR
STARTCHAR C231
ENCODING 231
SWIDTH 576 0
DWIDTH 8 0
BBX 9 9 2 0
BITMAP
FF80
0200
6A00
9600
C400
DC00
2400
1400
0800
ENDCHAR
STARTCHAR C232
ENCODING 232
SWIDTH 720 0
DWIDTH 10 0
BBX 11 9 2 0
BITMAP
FFE0
0280
6E80
D680
C500
0500
0D00
0F00
0200
ENDCHAR
STARTCHAR C233
ENCODING 233
SWIDTH 648 0
DWIDTH 9 0
BBX 11 9 1 0
BITMAP
7FE0
0080
3B80
6580
6100
7700
8900
C100
0200
ENDCHAR
STARTCHAR C234
ENCODING 234
SWIDTH 864 0
DWIDTH 12 0
BBX 13 9 2 0
BITMAP
C3F8
7A00
7600
F5C0
0440
0840
0880
0B00
0C00
ENDCHAR
STARTCHAR C235
ENCODING 235
SWIDTH 864 0
DWIDTH 12 0
BBX 13 9 2 0
BITMAP
C3F8
7E00
3BC0
7D20
0620
0040
0380
0100
0080
ENDCHAR
STARTCHAR C236
ENCODING 236
SWIDTH 576 0
DWIDTH 8 0
BBX 9 9 2 0
BITMAP
C380
7E00
3A00
7A00
0400
0400
7C00
6C00
0800
ENDCHAR
STARTCHAR C237
ENCODING 237
SWIDTH 720 0
DWIDTH 10 0
BBX 11 9 2 0
BITMAP
C3E0
7E80
7A80
FA80
0500
0500
0D00
0F00
0200
ENDCHAR
STARTCHAR C238
ENCODING 238
SWIDTH 576 0
DWIDTH 8 0
BBX 9 9 2 0
BITMAP
C380
7E00
3A00
7A00
0400
6C00
9400
C400
0800
ENDCHAR
STARTCHAR C239
ENCODING 239
SWIDTH 576 0
DWIDTH 8 0
BBX 9 9 2 0
BITMAP
C380
7E00
3A00
7A00
0400
1C00
2400
1400
0800
ENDCHAR
STARTCHAR C240
ENCODING 240
SWIDTH 576 0
DWIDTH 8 0
BBX 10 9 1 0
BITMAP
7FC0
1C00
3400
4C00
7600
CE00
2E00
1800
1800
ENDCHAR
STARTCHAR C241
ENCODING 241
SWIDTH 792 0
DWIDTH 11 0
BBX 12 10 2 -1
BITMAP
FFF0
3C00
6400
9E00
F200
B380
9580
8400
7C00
0400
ENDCHAR
STARTCHAR C242
ENCODING 242
SWIDTH 504 0
DWIDTH 7 0
BBX 9 13 2 -1
BITMAP
6000
1E00
0100
FF80
3C00
6400
9800
F000
4C00
8C00
8400
8800
7000
ENDCHAR
STARTCHAR C243
ENCODING 243
SWIDTH 576 0
DWIDTH 8 0
BBX 9 14 2 0
BITMAP
0400
0400
0800
0800
0800
FF80
3800
6C00
B400
F400
2400
C400
8800
7000
ENDCHAR
STARTCHAR C244
ENCODING 244
SWIDTH 792 0
DWIDTH 11 0
BBX 10 9 2 0
BITMAP
FE00
C580
2640
3580
4C40
CC40
2B80
1800
1800
ENDCHAR
STARTCHAR C245
ENCODING 245
SWIDTH 864 0
DWIDTH 12 0
BBX 13 9 2 0
BITMAP
FBB8
4C60
AAE0
9320
E440
0040
0040
0040
0080
ENDCHAR
STARTCHAR C246
ENCODING 246
SWIDTH 792 0
DWIDTH 11 0
BBX 12 9 2 0
BITMAP
FFF0
3800
6980
9940
E940
1280
3200
0A00
0600
ENDCHAR
STARTCHAR C247
ENCODING 247
SWIDTH 576 0
DWIDTH 8 0
BBX 9 9 2 0
BITMAP
FF80
3A00
6A00
9200
F400
7400
6C00
0C00
0800
ENDCHAR
STARTCHAR C248
ENCODING 248
SWIDTH 720 0
DWIDTH 10 0
BBX 11 9 2 0
BITMAP
FFE0
1100
2900
C600
0E00
3500
0F00
0F00
0400
ENDCHAR
STARTCHAR C249
ENCODING 249
SWIDTH 864 0
DWIDTH 12 0
BBX 13 10 2 -1
BITMAP
FFF8
1900
1900
6700
0900
5BC0
9AC0
8200
7A00
0400
ENDCHAR
STARTCHAR C250
ENCODING 250
SWIDTH 720 0
DWIDTH 10 0
BBX 11 11 2 -2
BITMAP
FFE0
1100
2900
C600
0E00
3300
0F00
6400
9C00
C400
0800
ENDCHAR
STARTCHAR C251
ENCODING 251
SWIDTH 792 0
DWIDTH 11 0
BBX 12 9 2 0
BITMAP
FC70
3240
3240
CC40
1E80
1A80
0C80
0E80
0100
ENDCHAR
STARTCHAR C252
ENCODING 252
SWIDTH 792 0
DWIDTH 11 0
BBX 13 12 2 0
BITMAP
0C00
03E0
0010
FFF8
4200
2200
3EC0
A6C0
C440
0480
0500
0600
ENDCHAR
STARTCHAR C253
ENCODING 253
SWIDTH 648 0
DWIDTH 9 0
BBX 10 9 2 0
BITMAP
FFC0
1900
1900
E700
8E00
8E00
4200
4400
3800
ENDCHAR
STARTCHAR C254
ENCODING 254
SWIDTH 576 0
DWIDTH 8 0
BBX 9 10 2 -1
BITMAP
FF80
3200
3200
CC00
3C00
E400
F800
9800
8800
7000
ENDCHAR
STARTCHAR C255
ENCODING 255
SWIDTH 648 0
DWIDTH 9 0
BBX 11 10 1 -1
BITMAP
7FE0
0C80
0C80
3700
0900
5900
9900
8200
7E00
0200
ENDCHAR
ENDFONT
